<?xml version="1.0" encoding="utf-8"?>
<!-- Generator: Adobe Illustrator 27.3.1, SVG Export Plug-In . SVG Version: 6.00 Build 0)  -->
<svg version="1.1" id="Layer_1" xmlns="http://www.w3.org/2000/svg" xmlns:xlink="http://www.w3.org/1999/xlink" x="0px" y="0px"
	 viewBox="0 0 233.3 41" style="enable-background:new 0 0 233.3 41;" xml:space="preserve">
<style type="text/css">
	.st0{fill:#FFFFFF;}
	.st1{fill:#EA580C;}
</style>
<g>
	<path class="st0" d="M57.3,28.9V11.5h6.5c1.3,0,2.5,0.2,3.4,0.7c0.9,0.5,1.6,1.1,2.1,2c0.5,0.8,0.7,1.8,0.7,2.9
		c0,1.1-0.2,2.1-0.7,2.9c-0.5,0.8-1.2,1.5-2.1,1.9c-0.9,0.4-2.1,0.7-3.4,0.7h-4.7v-2.6h4.2c0.8,0,1.4-0.1,1.9-0.3
		c0.5-0.2,0.9-0.5,1.1-1c0.2-0.4,0.4-0.9,0.4-1.6s-0.1-1.1-0.4-1.6c-0.2-0.4-0.6-0.8-1.1-1s-1.1-0.3-1.9-0.3h-2.9v14.8H57.3z
		 M66.3,21l4.3,7.9h-3.5L62.9,21H66.3z"/>
	<path class="st0" d="M78.4,29.2c-1.3,0-2.4-0.3-3.4-0.8S73.3,27,72.8,26c-0.5-1-0.8-2.2-0.8-3.6c0-1.3,0.3-2.5,0.8-3.5
		c0.5-1,1.2-1.8,2.2-2.4c0.9-0.6,2-0.9,3.3-0.9c0.8,0,1.6,0.1,2.3,0.4c0.7,0.3,1.4,0.7,1.9,1.2c0.6,0.5,1,1.2,1.3,2.1
		c0.3,0.8,0.5,1.8,0.5,3v0.9H73.5v-2.1h7.8c0-0.6-0.1-1.1-0.4-1.6c-0.2-0.5-0.6-0.8-1-1.1c-0.4-0.3-1-0.4-1.6-0.4
		c-0.6,0-1.2,0.2-1.7,0.5c-0.5,0.3-0.8,0.7-1.1,1.2c-0.3,0.5-0.4,1-0.4,1.6v1.8c0,0.8,0.1,1.4,0.4,2s0.7,1,1.2,1.2
		c0.5,0.3,1.1,0.4,1.8,0.4c0.4,0,0.9-0.1,1.2-0.2c0.4-0.1,0.7-0.3,0.9-0.6s0.5-0.6,0.6-0.9l2.9,0.3c-0.2,0.8-0.5,1.4-1,2
		c-0.5,0.6-1.2,1-1.9,1.3S79.4,29.2,78.4,29.2z"/>
	<path class="st0" d="M89.5,28.9l-3.7-13.1h3.1l2.3,9.2h0.1l2.4-9.2h3.1l2.4,9.2h0.1l2.3-9.2h3.2L101,28.9h-3.2l-2.5-8.8h-0.2
		l-2.5,8.8H89.5z"/>
	<path class="st0" d="M110.6,29.2c-0.8,0-1.6-0.1-2.2-0.4c-0.7-0.3-1.2-0.7-1.6-1.3c-0.4-0.6-0.6-1.3-0.6-2.2c0-0.7,0.1-1.3,0.4-1.8
		c0.3-0.5,0.6-0.9,1.1-1.2c0.5-0.3,1-0.5,1.6-0.7s1.2-0.3,1.8-0.3c0.8-0.1,1.4-0.2,1.9-0.2c0.5-0.1,0.8-0.2,1-0.3
		c0.2-0.1,0.3-0.4,0.3-0.7V20c0-0.6-0.2-1.1-0.6-1.5c-0.4-0.4-0.9-0.5-1.6-0.5c-0.8,0-1.4,0.2-1.8,0.5s-0.7,0.7-0.9,1.2l-2.9-0.4
		c0.2-0.8,0.6-1.5,1.1-2c0.5-0.5,1.2-0.9,1.9-1.2c0.8-0.3,1.6-0.4,2.5-0.4c0.6,0,1.3,0.1,1.9,0.2c0.6,0.1,1.2,0.4,1.7,0.7
		s0.9,0.8,1.2,1.4c0.3,0.6,0.5,1.3,0.5,2.2v8.8h-3v-1.8h-0.1c-0.2,0.4-0.5,0.7-0.8,1c-0.3,0.3-0.8,0.6-1.3,0.8
		C111.9,29.1,111.3,29.2,110.6,29.2z M111.4,26.9c0.6,0,1.2-0.1,1.6-0.4s0.8-0.6,1.1-1s0.4-0.9,0.4-1.3v-1.5
		c-0.1,0.1-0.3,0.2-0.5,0.2c-0.2,0.1-0.5,0.1-0.8,0.2c-0.3,0.1-0.6,0.1-0.8,0.1c-0.3,0-0.5,0.1-0.7,0.1c-0.5,0.1-0.9,0.2-1.2,0.3
		s-0.7,0.3-0.9,0.6c-0.2,0.3-0.3,0.6-0.3,1c0,0.6,0.2,1,0.6,1.3C110.3,26.8,110.8,26.9,111.4,26.9z"/>
	<path class="st0" d="M120.7,28.9V15.8h3V18h0.1c0.2-0.8,0.6-1.3,1.2-1.8c0.6-0.4,1.2-0.6,2-0.6c0.2,0,0.4,0,0.6,0
		c0.2,0,0.4,0,0.5,0.1v2.8c-0.1,0-0.3-0.1-0.6-0.1c-0.3,0-0.6-0.1-0.8-0.1c-0.6,0-1.1,0.1-1.5,0.4c-0.4,0.2-0.8,0.6-1.1,1
		c-0.3,0.4-0.4,0.9-0.4,1.5v7.7H120.7z"/>
	<path class="st0" d="M134.5,29.1c-1,0-1.9-0.3-2.8-0.8s-1.5-1.3-1.9-2.3c-0.5-1-0.7-2.2-0.7-3.7c0-1.5,0.2-2.7,0.7-3.7
		c0.5-1,1.1-1.8,1.9-2.3c0.8-0.5,1.7-0.8,2.7-0.8c0.8,0,1.4,0.1,1.9,0.4c0.5,0.3,0.9,0.6,1.2,0.9c0.3,0.4,0.5,0.7,0.7,1h0.1v-6.5
		h3.1v17.5h-3v-2.1h-0.2c-0.2,0.3-0.4,0.7-0.7,1c-0.3,0.4-0.7,0.7-1.2,0.9C135.9,29,135.2,29.1,134.5,29.1z M135.3,26.6
		c0.7,0,1.2-0.2,1.7-0.5c0.5-0.4,0.8-0.9,1-1.5c0.2-0.6,0.4-1.4,0.4-2.2s-0.1-1.6-0.4-2.2s-0.6-1.1-1-1.5c-0.5-0.3-1-0.5-1.7-0.5
		c-0.7,0-1.3,0.2-1.7,0.5c-0.5,0.4-0.8,0.9-1,1.5c-0.2,0.6-0.3,1.4-0.3,2.2c0,0.8,0.1,1.5,0.4,2.2s0.6,1.1,1,1.5
		C134.1,26.4,134.7,26.6,135.3,26.6z"/>
	<path class="st0" d="M150.8,28.9V11.5h3.2v14.8h7.7v2.7H150.8z"/>
	<path class="st0" d="M170,29.2c-1.3,0-2.4-0.3-3.3-0.8S165,27,164.5,26s-0.8-2.2-0.8-3.5c0-1.4,0.3-2.5,0.8-3.6s1.2-1.8,2.2-2.4
		s2-0.8,3.3-0.8s2.4,0.3,3.3,0.8s1.7,1.4,2.2,2.4s0.8,2.2,0.8,3.6c0,1.4-0.3,2.5-0.8,3.5s-1.2,1.8-2.2,2.4S171.3,29.2,170,29.2z
		 M170,26.7c0.7,0,1.3-0.2,1.7-0.6c0.5-0.4,0.8-0.9,1-1.5c0.2-0.6,0.3-1.4,0.3-2.2c0-0.8-0.1-1.5-0.3-2.2c-0.2-0.7-0.6-1.2-1-1.6
		c-0.5-0.4-1-0.6-1.7-0.6c-0.7,0-1.3,0.2-1.8,0.6c-0.5,0.4-0.8,0.9-1,1.6c-0.2,0.7-0.3,1.4-0.3,2.2c0,0.8,0.1,1.5,0.3,2.2
		c0.2,0.6,0.6,1.2,1,1.5C168.7,26.5,169.3,26.7,170,26.7z"/>
	<path class="st0" d="M180.4,33.8c-0.4,0-0.8,0-1.2-0.1s-0.6-0.1-0.8-0.2l0.7-2.4c0.4,0.1,0.8,0.2,1.2,0.2c0.4,0,0.7-0.1,0.9-0.3
		c0.3-0.2,0.5-0.6,0.7-1.1l0.3-0.7l-4.7-13.4h3.3l3,9.9h0.1l3-9.9h3.3l-5.2,14.7c-0.2,0.7-0.6,1.3-1,1.8c-0.4,0.5-0.9,0.9-1.5,1.1
		C181.9,33.7,181.2,33.8,180.4,33.8z"/>
	<path class="st0" d="M195.6,29.2c-0.8,0-1.6-0.1-2.2-0.4c-0.7-0.3-1.2-0.7-1.6-1.3c-0.4-0.6-0.6-1.3-0.6-2.2c0-0.7,0.1-1.3,0.4-1.8
		c0.3-0.5,0.6-0.9,1.1-1.2c0.5-0.3,1-0.5,1.6-0.7s1.2-0.3,1.8-0.3c0.8-0.1,1.4-0.2,1.9-0.2c0.5-0.1,0.8-0.2,1-0.3
		c0.2-0.1,0.3-0.4,0.3-0.7V20c0-0.6-0.2-1.1-0.6-1.5c-0.4-0.4-0.9-0.5-1.6-0.5c-0.8,0-1.4,0.2-1.8,0.5c-0.4,0.3-0.7,0.7-0.9,1.2
		l-2.9-0.4c0.2-0.8,0.6-1.5,1.1-2c0.5-0.5,1.2-0.9,1.9-1.2c0.8-0.3,1.6-0.4,2.5-0.4c0.6,0,1.3,0.1,1.9,0.2c0.6,0.1,1.2,0.4,1.7,0.7
		c0.5,0.3,0.9,0.8,1.2,1.4c0.3,0.6,0.5,1.3,0.5,2.2v8.8h-3v-1.8h-0.1c-0.2,0.4-0.4,0.7-0.8,1c-0.3,0.3-0.8,0.6-1.3,0.8
		C196.9,29.1,196.3,29.2,195.6,29.2z M196.4,26.9c0.6,0,1.2-0.1,1.6-0.4s0.8-0.6,1.1-1c0.2-0.4,0.4-0.9,0.4-1.3v-1.5
		c-0.1,0.1-0.3,0.2-0.5,0.2s-0.5,0.1-0.8,0.2c-0.3,0.1-0.6,0.1-0.8,0.1c-0.3,0-0.5,0.1-0.7,0.1c-0.5,0.1-0.9,0.2-1.2,0.3
		c-0.4,0.1-0.6,0.3-0.9,0.6c-0.2,0.3-0.3,0.6-0.3,1c0,0.6,0.2,1,0.6,1.3C195.3,26.8,195.8,26.9,196.4,26.9z"/>
	<path class="st0" d="M208.7,11.5v17.5h-3.1V11.5H208.7z"/>
	<path class="st0" d="M218.5,15.8v2.4h-7.5v-2.4H218.5z M212.8,12.7h3.1V25c0,0.4,0.1,0.7,0.2,1s0.3,0.4,0.5,0.4
		c0.2,0.1,0.4,0.1,0.7,0.1c0.2,0,0.4,0,0.5,0c0.2,0,0.3-0.1,0.4-0.1l0.5,2.4c-0.2,0.1-0.4,0.1-0.7,0.2c-0.3,0.1-0.7,0.1-1.1,0.1
		c-0.8,0-1.5-0.1-2.1-0.4c-0.6-0.3-1.1-0.7-1.5-1.2c-0.4-0.5-0.5-1.2-0.5-2V12.7z"/>
	<path class="st0" d="M223,33.8c-0.4,0-0.8,0-1.2-0.1c-0.4-0.1-0.6-0.1-0.8-0.2l0.7-2.4c0.4,0.1,0.8,0.2,1.2,0.2
		c0.4,0,0.7-0.1,0.9-0.3c0.3-0.2,0.5-0.6,0.7-1.1l0.3-0.7L220,15.8h3.3l3,9.9h0.1l3-9.9h3.3l-5.2,14.7c-0.2,0.7-0.6,1.3-1,1.8
		c-0.4,0.5-0.9,0.9-1.5,1.1C224.5,33.7,223.8,33.8,223,33.8z"/>
</g>
<circle class="st1" cx="15.1" cy="3.7" r="3.7"/>
<circle class="st1" cx="20.9" cy="19.7" r="5.5"/>
<circle class="st1" cx="3.7" cy="20.9" r="3.7"/>
<circle class="st1" cx="34.9" cy="9.6" r="3.7"/>
<circle class="st1" cx="35.9" cy="30.2" r="3.7"/>
<circle class="st1" cx="16.2" cy="37.3" r="3.7"/>
</svg>
