<?xml version="1.0" standalone="no"?>
<!DOCTYPE svg PUBLIC "-//W3C//DTD SVG 20010904//EN"
 "http://www.w3.org/TR/2001/REC-SVG-20010904/DTD/svg10.dtd">
<svg version="1.0" xmlns="http://www.w3.org/2000/svg"
 width="656.000000pt" height="656.000000pt" viewBox="0 0 656.000000 656.000000"
 preserveAspectRatio="xMidYMid meet">
<metadata>
Created by potrace 1.14, written by Peter Selinger 2001-2017
</metadata>
<g transform="translate(0.000000,656.000000) scale(0.100000,-0.100000)"
fill="#000000" stroke="none">
<path d="M2397 6545 c-26 -7 -50 -13 -52 -13 -3 -1 -21 -9 -41 -17 -20 -8 -40
-15 -45 -15 -5 0 -9 -3 -9 -7 0 -5 -19 -17 -41 -28 -56 -26 -167 -148 -207
-226 -61 -120 -80 -248 -55 -374 23 -118 25 -125 34 -125 5 0 9 -7 9 -16 0
-25 70 -125 126 -179 149 -145 341 -197 559 -151 94 20 212 93 291 179 203
225 201 567 -4 799 -47 53 -180 140 -234 154 -5 1 -9 2 -10 4 -2 1 -10 3 -18
5 -8 2 -34 8 -58 13 -59 14 -187 12 -245 -3z"/>
<path d="M5638 5615 c-2 -2 -19 -5 -38 -8 -118 -18 -222 -72 -316 -164 -41
-39 -74 -76 -74 -81 0 -6 -6 -17 -13 -24 -17 -17 -61 -121 -77 -180 -19 -72
-15 -255 6 -289 3 -5 7 -18 9 -29 12 -60 91 -185 157 -245 52 -49 88 -73 148
-102 101 -47 135 -55 265 -57 75 -1 104 3 175 27 46 16 96 37 111 48 15 10 30
19 33 19 8 0 25 14 79 65 250 238 247 624 -7 866 -28 27 -56 49 -63 49 -6 0
-13 3 -15 8 -6 13 -82 50 -149 72 -54 17 -220 35 -231 25z"/>
<path d="M3358 4284 c-2 -1 -21 -4 -43 -7 -59 -9 -193 -51 -245 -78 -303 -155
-490 -451 -493 -779 0 -67 8 -154 19 -199 2 -9 8 -36 14 -60 16 -67 88 -207
143 -281 138 -183 342 -305 570 -341 103 -16 271 -6 362 21 39 11 75 22 80 24
6 1 37 15 70 31 241 112 427 347 481 604 2 14 7 37 11 51 10 46 6 244 -6 305
-64 307 -267 544 -566 660 -31 12 -73 23 -150 40 -28 7 -242 14 -247 9z"/>
<path d="M617 3804 c-1 -2 -16 -5 -33 -8 -92 -17 -211 -78 -285 -149 -130
-124 -191 -271 -184 -446 4 -99 6 -111 23 -166 62 -192 222 -341 423 -395 81
-21 260 -16 308 9 11 7 21 9 21 6 0 -3 10 0 23 7 12 7 24 13 27 14 44 10 127
69 188 132 233 242 218 626 -34 851 -64 56 -171 113 -249 132 -45 10 -220 21
-228 13z"/>
<path d="M5848 2324 c-3 -2 -30 -6 -60 -9 -102 -9 -222 -61 -311 -135 -238
-199 -280 -561 -94 -805 90 -117 229 -204 369 -231 33 -6 180 -7 208 -2 8 2
21 7 28 11 6 5 12 6 12 3 0 -10 167 58 180 74 3 3 21 17 40 30 19 14 48 40 65
59 16 19 35 39 41 45 10 11 68 106 70 116 0 3 6 19 14 35 42 99 50 242 19 360
-46 177 -159 311 -330 394 -26 12 -57 24 -70 27 -87 18 -123 24 -127 20 -2 -3
-14 -1 -27 4 -13 5 -25 7 -27 4z"/>
<path d="M2645 1182 c-2 -2 -22 -6 -46 -8 -49 -6 -158 -47 -213 -82 -21 -13
-60 -45 -87 -71 -27 -26 -51 -45 -54 -43 -3 3 -5 -2 -5 -11 0 -10 -3 -17 -8
-17 -8 0 -10 -4 -59 -98 -17 -34 -29 -62 -26 -62 3 0 0 -7 -7 -15 -7 -9 -10
-18 -7 -22 4 -3 1 -15 -5 -27 -17 -32 -18 -192 -2 -265 17 -70 60 -166 102
-221 71 -96 212 -195 307 -215 241 -52 423 -7 578 142 52 50 127 156 127 180
0 7 4 13 10 13 5 0 9 3 8 7 -1 5 6 35 16 68 19 60 25 206 12 270 -34 174 -161
338 -319 414 -73 35 -148 59 -169 53 -5 -1 -8 1 -8 6 0 7 -138 11 -145 4z"/>
</g>
</svg>
